#!OML:ASF F:\VICON\USERDATA\INSTALL\rory3\rory3.ASF
:FULLY-SPECIFIED
:DEGREES
361
root 0.116258 17.8288 36.5375 -2.89543 -5.30817 -6.07394
lowerback 10.1541 0.907539 5.69975
upperback 0.461043 1.97697 2.14468
thorax -5.10463 0.863493 -1.2444
lowerneck -15.7643 -2.19451 -2.18397
upperneck 18.3951 -2.60029 0.544532
head 8.35683 -1.32739 0.237519
rclavicle 5.41067e-015 7.15625e-015
rhumerus -27.2414 -11.8767 -81.9548
rradius 26.3956
rwrist 3.23737
rhand -18.6351 17.7612
rfingers 7.12502
rthumb 7.65732 -12.0802
lclavicle 5.41067e-015 7.15625e-015
lhumerus -33.9892 -1.53061 84.1125
lradius 26.676
lwrist 3.76367
lhand -32.384 19.9851
lfingers 7.12502
lthumb -5.61945 49.8906
rfemur -2.81043 8.13656 33.1886
rtibia 30.851
rfoot -19.9068 -6.28947
rtoes 10.7796
lfemur -27.2017 2.83014 -12.0624
ltibia 58.8897
lfoot -9.05009 -2.09568
ltoes -10.4139
362
root 0.118256 17.8191 36.7027 -2.67025 -5.59202 -6.2534
lowerback 10.37 1.02898 5.82645
upperback 0.40444 2.17485 2.1799
thorax -5.27036 0.952621 -1.31201
lowerneck -15.983 -2.29079 -2.31679
upperneck 18.3617 -2.72568 0.694615
head 8.39079 -1.37933 0.292543
rclavicle 1.47287e-014 -1.98785e-015
rhumerus -26.7839 -11.0998 -82.1707
rradius 27.0681
rwrist 2.61297
rhand -18.5155 16.5609
rfingers 7.12502
rthumb 7.77285 -13.2762
lclavicle 1.47287e-014 -1.98785e-015
lhumerus -33.8635 -0.351285 83.4525
lradius 28.2666
lwrist 9.01202
lhand -24.9154 27.099
lfingers 7.12502
lthumb 1.59331 57.0728
rfemur -2.33484 8.41072 33.4363
rtibia 30.6091
rfoot -20.0658 -6.48515
rtoes 10.5478
lfemur -27.9725 2.74863 -11.7002
ltibia 56.9119
lfoot -8.87043 -1.66162
ltoes -8.09874
363
root 0.125035 17.8139 36.8803 -2.43216 -5.73483 -6.47748
lowerback 10.3365 1.07318 6.14175
upperback 0.369676 2.2686 2.16016
thorax -5.26993 0.990056 -1.52126
lowerneck -16.1245 -2.30188 -2.10959
upperneck 18.2507 -2.75736 0.547564
head 8.37361 -1.39438 0.20445
rclavicle 3.21006e-014 1.60022e-014
rhumerus -26.1769 -10.6474 -82.4256
rradius 27.3682
rwrist 2.22675
rhand -18.704 17.043
rfingers 7.12502
rthumb 7.59087 -12.8008
lclavicle 3.21006e-014 1.60022e-014
lhumerus -34.3506 -0.945156 83.9329
lradius 27.2881
lwrist 6.32153
lhand -29.8904 19.8699
lfingers 7.12502
lthumb -3.2116 49.8254
rfemur -1.76576 8.40005 33.663
rtibia 30.3229
rfoot -20.4252 -6.58869
rtoes 9.74607
lfemur -28.6355 2.42425 -11.3137
ltibia 54.6635
lfoot -8.55255 -1.08678
ltoes -5.54672
364
root 0.135489 17.8142 37.0627 -2.23025 -5.65809 -6.07252
lowerback 9.95775 1.12312 5.90337
upperback 0.474371 2.26207 1.99635
thorax -4.94892 1.00202 -1.54673
lowerneck -16.2126 -2.26644 -1.88552
upperneck 17.9783 -2.69308 0.227258
head 8.28861 -1.3811 0.0687529
rclavicle 1.01442e-014 -7.15625e-015
rhumerus -25.5203 -10.2918 -82.5587
rradius 27.7125
rwrist 1.76307
rhand -19.391 21.1417
rfingers 7.12502
rthumb 6.92768 -8.72492
lclavicle 1.01442e-014 -7.15625e-015
lhumerus -34.5413 -1.1113 84.2173
lradius 26.884
lwrist 4.44584
lhand -31.9623 16.3228
lfingers 7.12502
lthumb -5.21229 46.2387
rfemur -1.13886 8.00919 33.135
rtibia 29.9201
rfoot -20.6806 -6.58669
rtoes 8.96629
lfemur -29.0927 1.83232 -11.7151
ltibia 52.1819
lfoot -8.25879 -0.192937
ltoes -5.11271
365
root 0.145953 17.8123 37.2397 -1.90104 -5.70755 -6.02558
lowerback 9.48593 1.21447 5.9685
upperback 0.626051 2.34098 1.92588
thorax -4.51374 1.05405 -1.65072
lowerneck -16.3774 -2.24437 -1.71151
upperneck 17.6796 -2.67015 0.0791849
head 8.21242 -1.37274 -0.00643372
rclavicle -3.3812e-014 -1.50082e-014
rhumerus -24.9125 -9.82024 -82.7081
rradius 28.3441
rwrist 1.16715
rhand -19.7686 24.0124
rfingers 7.12502
rthumb 6.56319 -5.86589
lclavicle -3.3812e-014 -1.50082e-014
lhumerus -34.3883 -0.898148 84.2807
lradius 26.785
lwrist 4.62812
lhand -31.4636 15.5405
lfingers 7.12502
lthumb -4.73083 45.4677
rfemur -0.629049 7.75041 33.0005
rtibia 29.4544
rfoot -20.9001 -6.69271
rtoes 7.84636
lfemur -29.6219 1.4535 -11.6741
ltibia 49.6068
lfoot -7.96139 0.485589
ltoes -4.52077
366
root 0.150117 17.7989 37.4107 -1.51201 -5.9847 -6.41684
lowerback 9.36704 1.3283 6.28388
upperback 0.568019 2.52369 2.03017
thorax -4.48697 1.1385 -1.73755
lowerneck -16.3165 -2.24691 -1.72631
upperneck 17.4201 -2.65489 0.00747106
head 8.11372 -1.3737 -0.023622
rclavicle -1.32316e-015 5.1684e-015
rhumerus -24.4862 -8.96393 -82.8672
rradius 28.9897
rwrist 0.373742
rhand -19.6974 23.9688
rfingers 7.12502
rthumb 6.63198 -5.90733
lclavicle -1.32316e-015 5.1684e-015
lhumerus -34.6435 -0.624114 84.3621
lradius 26.7015
lwrist 5.15333
lhand -31.2026 14.4528
lfingers 7.12502
lthumb -4.47882 44.3854
rfemur -0.174704 8.00848 33.4704
rtibia 28.9917
rfoot -20.9627 -6.99898
rtoes 7.71449
lfemur -30.1811 1.33074 -11.0381
ltibia 46.9258
lfoot -7.49081 0.927075
ltoes -2.30508
367
root 0.154456 17.7808 37.577 -1.2609 -6.16261 -6.97509
lowerback 9.69142 1.40318 6.79722
upperback 0.405984 2.72151 2.14461
thorax -4.80785 1.21258 -1.94231
lowerneck -16.4153 -2.26804 -1.73444
upperneck 17.4366 -2.68906 0.0528751
head 8.13778 -1.38549 -0.012454
rclavicle -1.01132e-014 -1.13307e-014
rhumerus -24.1903 -8.5381 -82.9336
rradius 29.3586
rwrist -0.0633526
rhand -19.9479 23.939
rfingers 7.12502
rthumb 6.39014 -5.94459
lclavicle -1.01132e-014 -1.13307e-014
lhumerus -35.1034 -0.570818 84.509
lradius 26.5675
lwrist 4.64821
lhand -31.458 14.4841
lfingers 7.12502
lthumb -4.7254 44.4114
rfemur 0.446349 8.1601 34.1416
rtibia 28.4812
rfoot -20.8686 -7.234
rtoes 8.22745
lfemur -30.5029 1.01553 -10.1538
ltibia 44.1173
lfoot -6.75202 1.29658
ltoes -0.403354
368
root 0.161589 17.7729 37.757 -1.07751 -6.23147 -7.15037
lowerback 9.78233 1.48119 6.97908
upperback 0.313301 2.86095 2.1782
thorax -4.93879 1.27108 -2.03115
lowerneck -16.5911 -2.2597 -1.75606
upperneck 17.5862 -2.68568 0.133603
head 8.22055 -1.37661 0.0153523
rclavicle 2.04997e-016 1.21259e-014
rhumerus -23.8948 -8.26081 -82.8676
rradius 29.701
rwrist -0.375063
rhand -20.0907 24.4666
rfingers 7.12502
rthumb 6.25228 -5.42109
lclavicle 2.04997e-016 1.21259e-014
lhumerus -35.3686 -0.679258 84.7385
lradius 26.3463
lwrist 4.16467
lhand -30.5408 17.0121
lfingers 7.12502
lthumb -3.8397 46.9573
rfemur 1.18623 8.12539 34.3396
rtibia 27.9898
rfoot -21.1244 -7.37116
rtoes 8.13977
lfemur -30.451 0.392248 -9.6878
ltibia 41.1263
lfoot -5.92165 2.05774
ltoes 1.14102
369
root 0.165197 17.7678 37.9465 -0.94785 -6.39242 -6.98085
lowerback 9.63784 1.61957 6.74596
upperback 0.286337 3.00528 2.13452
thorax -4.88285 1.34875 -1.9608
lowerneck -16.5643 -2.22165 -1.73337
upperneck 17.5977 -2.63749 0.12323
head 8.21871 -1.35337 0.0141545
rclavicle -4.69256e-014 -5.56597e-015
rhumerus -23.8194 -8.02147 -82.813
rradius 30.4998
rwrist -0.731349
rhand -20.0058 24.6214
rfingers 7.12502
rthumb 6.33426 -5.26385
lclavicle -4.69256e-014 -5.56597e-015
lhumerus -35.6099 -0.529816 84.758
lradius 26.2019
lwrist 3.8939
lhand -29.0442 18.8732
lfingers 7.12502
lthumb -2.39439 48.8396
rfemur 1.99354 8.33174 34.222
rtibia 27.4919
rfoot -20.4937 -7.28937
rtoes 11.7177
lfemur -30.22 -0.339058 -9.5542
ltibia 37.9453
lfoot -5.03392 2.77107
ltoes -1.8227
370
root 0.169558 17.7545 38.1265 -0.83833 -6.57335 -7.00302
lowerback 9.58447 1.75517 6.7079
upperback 0.39108 3.16905 2.12023
thorax -4.73027 1.43726 -1.97085
lowerneck -16.846 -2.25129 -1.75746
upperneck 17.6071 -2.69638 0.269275
head 8.27477 -1.36672 0.0566104
rclavicle -2.84883e-014 -4.44284e-014
rhumerus -23.4657 -7.71259 -82.8472
rradius 31.2381
rwrist -1.17145
rhand -19.669 23.8113
rfingers 7.12502
rthumb 6.65938 -6.06395
lclavicle -2.84883e-014 -4.44284e-014
lhumerus -35.4893 0.0664404 84.5499
lradius 25.8963
lwrist 2.79175
lhand -28.6068 18.8287
lfingers 7.12502
lthumb -1.97195 48.7993
rfemur 2.76344 8.6347 34.3686
rtibia 26.9658
rfoot -21.5273 -8.48201
rtoes 5.4471
lfemur -30.0279 -1.08973 -9.12965
ltibia 34.7268
lfoot -4.05865 3.36329
ltoes -2.86671
371
root 0.179168 17.7455 38.3095 -0.610287 -6.64128 -7.0712
lowerback 9.37299 1.83783 6.78979
upperback 0.517972 3.26125 2.13621
thorax -4.46708 1.4925 -1.99895
lowerneck -17.362 -2.31018 -1.89181
upperneck 17.7174 -2.75778 0.394712
head 8.40806 -1.38983 0.106627
rclavicle -1.95679e-015 1.83876e-014
rhumerus -22.929 -7.53512 -82.8128
rradius 31.733
rwrist -1.36989
rhand -19.46 23.3397
rfingers 7.12502
rthumb 6.86109 -6.52917
lclavicle -1.95679e-015 1.83876e-014
lhumerus -35.3414 0.637093 84.4635
lradius 25.5747
lwrist 1.82478
lhand -28.753 18.2017
lfingers 7.12502
lthumb -2.11317 48.171
rfemur 3.48754 8.66992 34.4482
rtibia 26.424
rfoot -21.2385 -8.99427
rtoes 5.56882
lfemur -29.8449 -2.07325 -8.58217
ltibia 31.5035
lfoot -3.67792 4.18557
ltoes -1.46819
